<?xml version="1.0" encoding="UTF-8" standalone="no"?>
<svg
   width="200"
   height="200"
   version="1.1"
   viewBox="0 0 200 200"
   id="svg14"
   sodipodi:docname="kde.svg"
   inkscape:version="1.1 (c4e8f9ed74, 2021-05-24)"
   xmlns:inkscape="http://www.inkscape.org/namespaces/inkscape"
   xmlns:sodipodi="http://sodipodi.sourceforge.net/DTD/sodipodi-0.dtd"
   xmlns="http://www.w3.org/2000/svg"
   xmlns:svg="http://www.w3.org/2000/svg"
   xmlns:rdf="http://www.w3.org/1999/02/22-rdf-syntax-ns#"
   xmlns:cc="http://creativecommons.org/ns#"
   xmlns:dc="http://purl.org/dc/elements/1.1/">
  <metadata
     id="metadata20">
    <rdf:RDF>
      <cc:Work
         rdf:about="">
        <dc:format>image/svg+xml</dc:format>
        <dc:type
           rdf:resource="http://purl.org/dc/dcmitype/StillImage" />
      </cc:Work>
    </rdf:RDF>
  </metadata>
  <defs
     id="defs18" />
  <sodipodi:namedview
     pagecolor="#c6c6c6"
     bordercolor="#666666"
     borderopacity="1"
     objecttolerance="10"
     gridtolerance="10"
     guidetolerance="10"
     inkscape:pageopacity="0"
     inkscape:pageshadow="2"
     inkscape:window-width="1920"
     inkscape:window-height="1012"
     id="namedview16"
     showgrid="false"
     inkscape:zoom="2"
     inkscape:cx="12.25"
     inkscape:cy="62.5"
     inkscape:window-x="0"
     inkscape:window-y="0"
     inkscape:window-maximized="1"
     inkscape:current-layer="svg14"
     inkscape:document-rotation="0"
     inkscape:pagecheckerboard="0">
    <inkscape:grid
       type="xygrid"
       id="grid46" />
  </sodipodi:namedview>
  <path
     d="m 68.400001,20.000001 c -10.193599,0 -18.399999,8.2064 -18.399999,18.4 L 50,61 c 0,3 2,5 5,5 l 41.000002,10e-7 c 0,0 2e-6,-38.000001 0,-41.000001 C 96,22 94,20 91,20 c -3,0 -22.599999,1e-6 -22.599999,1e-6 z"
     fill="#ffffff"
     id="path2"
     style="stroke-width:1.05417"
     sodipodi:nodetypes="sszzczzs" />
  <path
     d="m 131.6,20.000001 c 10.1936,0 18.4,8.2064 18.4,18.4 V 61 c 0,3 -2,5 -5,5 l -41,10e-7 c 0,0 0,-38.000001 0,-41.000001 0,-3 2,-5 5,-5 3,0 22.6,1e-6 22.6,1e-6 z"
     fill="#ffffff"
     id="path1526"
     style="stroke-width:1.05417"
     sodipodi:nodetypes="sszzczzs" />
  <path
     d="M 68.400001,120 C 58.206402,120 50.000002,111.7936 50.000002,101.6 L 50,79 c 0,-3 2,-5 5,-5 h 41.000002 c 0,0 2e-6,38 0,41 C 96,118 94,120 91,120 c -3,0 -22.599999,0 -22.599999,0 z"
     fill="#ffffff"
     id="path1528"
     style="stroke-width:1.05417"
     sodipodi:nodetypes="sszzczzs" />
  <path
     d="m 131.6,120 c 10.1936,0 18.4,-8.2064 18.4,-18.4 V 79 c 0,-3 -2,-5 -5,-5 h -41 c 0,0 0,38 0,41 0,3 2,5 5,5 3,0 22.6,0 22.6,0 z"
     fill="#ffffff"
     id="path1530"
     style="stroke-width:1.05417"
     sodipodi:nodetypes="sszzczzs" />
</svg>
