<svg width="22" height="22" enable-background="new" version="1.1" xmlns="http://www.w3.org/2000/svg">
 <g id="active-center">
  <rect width="22" height="22" fill="#000000" opacity=".001"/>
  <path d="m15.596 6.4038c-0.19587-0.19587-0.51124-0.19587-0.70711 0l-3.8891 3.8891-3.8891-3.8891c-0.19587-0.19587-0.51124-0.19587-0.70711 0s-0.19587 0.51124 0 0.70711l3.8891 3.8891-3.8891 3.8891c-0.19587 0.19587-0.19587 0.51124 0 0.70711s0.51124 0.19587 0.70711 0l3.8891-3.8891 3.8891 3.8891c0.19587 0.19587 0.51124 0.19587 0.70711 0s0.19587-0.51124 0-0.70711l-3.8891-3.8891 3.8891-3.8891c0.19587-0.19587 0.19587-0.51124 0-0.70711z" fill="#dedede" stroke-linecap="round" stroke-linejoin="round" stroke-opacity=".08" style="paint-order:stroke markers fill"/>
 </g>
 <g id="hover-center">
  <rect x="23" width="22" height="22" fill="#000000" opacity=".001"/>
  <circle cx="34" cy="11" r="11" fill="#ff8080"/>
  <path d="m38.596 6.4038c-0.19587-0.19587-0.51124-0.19587-0.70711 0l-3.8891 3.8891-3.8891-3.8891c-0.19587-0.19587-0.51124-0.19587-0.70711 0s-0.19587 0.51124 0 0.70711l3.8891 3.8891-3.8891 3.8891c-0.19587 0.19587-0.19587 0.51124 0 0.70711s0.51124 0.19587 0.70711 0l3.8891-3.8891 3.8891 3.8891c0.19587 0.19587 0.51124 0.19587 0.70711 0s0.19587-0.51124 0-0.70711l-3.8891-3.8891 3.8891-3.8891c0.19587-0.19587 0.19587-0.51124 0-0.70711z" fill="#ffffff" stroke-linecap="round" stroke-linejoin="round" stroke-opacity=".08" style="paint-order:stroke markers fill"/>
 </g>
 <g id="pressed-center">
  <rect x="46" width="22" height="22" fill="#000000" opacity=".001"/>
  <circle cx="57" cy="11" r="11" fill="#d35f5f"/>
  <path d="m61.596 6.4038c-0.19587-0.19587-0.51124-0.19587-0.70711 0l-3.8891 3.8891-3.8891-3.8891c-0.19587-0.19587-0.51124-0.19587-0.70711 0s-0.19587 0.51124 0 0.70711l3.8891 3.8891-3.8891 3.8891c-0.19587 0.19587-0.19587 0.51124 0 0.70711s0.51124 0.19587 0.70711 0l3.8891-3.8891 3.8891 3.8891c0.19587 0.19587 0.51124 0.19587 0.70711 0s0.19587-0.51124 0-0.70711l-3.8891-3.8891 3.8891-3.8891c0.19587-0.19587 0.19587-0.51124 0-0.70711z" fill="#ffffff" stroke-linecap="round" stroke-linejoin="round" stroke-opacity=".08" style="paint-order:stroke markers fill"/>
 </g>
 <g id="inactive-center" transform="translate(74.707)" opacity=".35">
  <rect width="22" height="22" fill="#000000" opacity=".001"/>
  <path d="m15.596 6.4038c-0.19587-0.19587-0.51124-0.19587-0.70711 0l-3.8891 3.8891-3.8891-3.8891c-0.19587-0.19587-0.51124-0.19587-0.70711 0s-0.19587 0.51124 0 0.70711l3.8891 3.8891-3.8891 3.8891c-0.19587 0.19587-0.19587 0.51124 0 0.70711s0.51124 0.19587 0.70711 0l3.8891-3.8891 3.8891 3.8891c0.19587 0.19587 0.51124 0.19587 0.70711 0s0.19587-0.51124 0-0.70711l-3.8891-3.8891 3.8891-3.8891c0.19587-0.19587 0.19587-0.51124 0-0.70711z" fill="#dedede" opacity="1" stroke-linecap="round" stroke-linejoin="round" stroke-opacity=".08" style="paint-order:stroke markers fill"/>
 </g>
 <g id="deactivated-center" transform="translate(99)" opacity=".35">
  <rect width="22" height="22" fill="#000000" opacity=".001"/>
  <path d="m15.596 6.4038c-0.19587-0.19587-0.51124-0.19587-0.70711 0l-3.8891 3.8891-3.8891-3.8891c-0.19587-0.19587-0.51124-0.19587-0.70711 0s-0.19587 0.51124 0 0.70711l3.8891 3.8891-3.8891 3.8891c-0.19587 0.19587-0.19587 0.51124 0 0.70711s0.51124 0.19587 0.70711 0l3.8891-3.8891 3.8891 3.8891c0.19587 0.19587 0.51124 0.19587 0.70711 0s0.19587-0.51124 0-0.70711l-3.8891-3.8891 3.8891-3.8891c0.19587-0.19587 0.19587-0.51124 0-0.70711z" fill="#dedede" opacity="1" stroke-linecap="round" stroke-linejoin="round" stroke-opacity=".08" style="paint-order:stroke markers fill"/>
 </g>
</svg>
