<svg width="22" height="22" enable-background="new" version="1.1" xmlns="http://www.w3.org/2000/svg">
 <g id="active-center">
  <rect width="22" height="22" fill="#000000" opacity=".001"/>
  <path d="M 11.708,11 16,15.292 15.292,16 11,11.708 6.7080001,16 6.0000001,15.292 10.292,11 6.0000001,6.708 6.7080001,6 11,10.292 15.292,6 16,6.708 Z" fill="#444444"/>
 </g>
 <g id="hover-center">
  <rect x="23" width="22" height="22" fill="#000000" opacity=".001"/>
  <circle cx="34" cy="11" r="11" fill="#ff8080"/>
  <path d="M 34.708,11 39,15.292 38.292,16 34,11.708 29.708,16 29,15.292 33.292,11 29,6.708 29.708,6 34,10.292 38.292,6 39,6.708 Z" fill="#ffffff"/>
 </g>
 <g id="pressed-center">
  <rect x="46" width="22" height="22" fill="#000000" opacity=".001"/>
  <circle cx="57" cy="11" r="11" fill="#d35f5f"/>
  <path d="M 57.708,11 62,15.292 61.292,16 57,11.708 52.708,16 52,15.292 56.292,11 52,6.708 52.708,6 57,10.292 61.292,6 62,6.708 Z" fill="#ffffff"/>
 </g>
 <g id="inactive-center" transform="translate(69 -.292)" opacity=".35">
  <rect width="22" height="22" fill="#000000" opacity=".001"/>
  <path d="M 11.708,11 16,15.292 15.292,16 11,11.708 6.7080001,16 6.0000001,15.292 10.292,11 6.0000001,6.708 6.7080001,6 11,10.292 15.292,6 16,6.708 Z" fill="#444444"/>
 </g>
 <g id="deactivated-center" transform="translate(93.292 -.292)" opacity=".35">
  <rect width="22" height="22" fill="#000000" opacity=".001"/>
  <path d="M 11.708,11 16,15.292 15.292,16 11,11.708 6.7080001,16 6.0000001,15.292 10.292,11 6.0000001,6.708 6.7080001,6 11,10.292 15.292,6 16,6.708 Z" fill="#444444"/>
 </g>
</svg>
